<svg width="47" height="50" viewBox="0 0 47 50" fill="none" xmlns="http://www.w3.org/2000/svg">
<path d="M11.5474 40.9164C11.3858 42.2993 10.8739 43.3679 10.0118 44.1223C9.15574 44.8706 8.01526 45.2448 6.59042 45.2448C5.04583 45.2448 3.80658 44.691 2.87264 43.5835C1.9447 42.4759 1.48072 40.9942 1.48072 39.1383V37.8811C1.48072 36.6658 1.69625 35.5971 2.12729 34.6752C2.56433 33.7532 3.18096 33.0468 3.9772 32.5559C4.77344 32.059 5.6954 31.8105 6.74308 31.8105C8.13201 31.8105 9.24554 32.1997 10.0837 32.9779C10.9218 33.7502 11.4098 34.8219 11.5474 36.1928H9.81428C9.66461 35.1511 9.33834 34.3968 8.83545 33.9298C8.33855 33.4629 7.64109 33.2294 6.74308 33.2294C5.64152 33.2294 4.77643 33.6365 4.14782 34.4507C3.5252 35.2649 3.21389 36.4233 3.21389 37.926V39.1922C3.21389 40.611 3.51023 41.7395 4.10292 42.5777C4.69561 43.4158 5.52478 43.8349 6.59042 43.8349C7.5483 43.8349 8.28167 43.6194 8.79055 43.1883C9.30541 42.7513 9.64665 41.994 9.81428 40.9164H11.5474ZM15.4538 45.0652H13.7925V31.2717H15.4538V45.0652ZM17.6809 40.1171C17.6809 39.1652 17.8665 38.3091 18.2376 37.5488C18.6148 36.7885 19.1357 36.2018 19.8002 35.7887C20.4707 35.3756 21.234 35.1691 22.0901 35.1691C23.4132 35.1691 24.4818 35.6271 25.296 36.543C26.1162 37.459 26.5263 38.6773 26.5263 40.198V40.3147C26.5263 41.2606 26.3437 42.1107 25.9785 42.8651C25.6193 43.6134 25.1015 44.1971 24.425 44.6162C23.7544 45.0353 22.9821 45.2448 22.1081 45.2448C20.791 45.2448 19.7224 44.7868 18.9022 43.8708C18.088 42.9549 17.6809 41.7425 17.6809 40.2339V40.1171ZM19.3512 40.3147C19.3512 41.3923 19.5996 42.2574 20.0965 42.91C20.5994 43.5625 21.2699 43.8888 22.1081 43.8888C22.9522 43.8888 23.6227 43.5595 24.1196 42.901C24.6165 42.2364 24.865 41.3085 24.865 40.1171C24.865 39.0515 24.6105 38.1894 24.1017 37.5309C23.5988 36.8663 22.9283 36.5341 22.0901 36.5341C21.2699 36.5341 20.6084 36.8603 20.1055 37.5129C19.6026 38.1655 19.3512 39.0994 19.3512 40.3147ZM34.2672 42.4879C34.2672 42.0389 34.0966 41.6917 33.7553 41.4462C33.42 41.1947 32.8304 40.9792 31.9862 40.7996C31.1481 40.62 30.4806 40.4045 29.9837 40.1531C29.4927 39.9016 29.1275 39.6023 28.8881 39.255C28.6546 38.9078 28.5379 38.4947 28.5379 38.0158C28.5379 37.2195 28.8731 36.546 29.5436 35.9953C30.2201 35.4445 31.0822 35.1691 32.1299 35.1691C33.2315 35.1691 34.1235 35.4535 34.806 36.0222C35.4945 36.5909 35.8387 37.3183 35.8387 38.2044H34.1684C34.1684 37.7494 33.9738 37.3572 33.5847 37.028C33.2015 36.6987 32.7166 36.5341 32.1299 36.5341C31.5252 36.5341 31.0523 36.6658 30.711 36.9292C30.3698 37.1926 30.1992 37.5368 30.1992 37.9619C30.1992 38.363 30.3578 38.6653 30.6751 38.8689C30.9924 39.0724 31.5642 39.267 32.3903 39.4526C33.2225 39.6382 33.896 39.8597 34.4109 40.1171C34.9257 40.3746 35.3059 40.6859 35.5513 41.0511C35.8028 41.4103 35.9285 41.8503 35.9285 42.3711C35.9285 43.2392 35.5813 43.9367 34.8868 44.4635C34.1923 44.9844 33.2913 45.2448 32.1838 45.2448C31.4055 45.2448 30.717 45.1071 30.1184 44.8317C29.5197 44.5563 29.0497 44.1732 28.7085 43.6822C28.3732 43.1853 28.2056 42.6495 28.2056 42.0748H29.8669C29.8968 42.6316 30.1184 43.0746 30.5314 43.4039C30.9505 43.7271 31.5013 43.8888 32.1838 43.8888C32.8124 43.8888 33.3153 43.7631 33.6924 43.5116C34.0756 43.2542 34.2672 42.9129 34.2672 42.4879ZM42.1248 45.2448C40.8077 45.2448 39.7361 44.8137 38.9099 43.9516C38.0837 43.0836 37.6706 41.9251 37.6706 40.4763V40.171C37.6706 39.2071 37.8532 38.348 38.2184 37.5937C38.5896 36.8334 39.1045 36.2407 39.763 35.8157C40.4275 35.3846 41.1459 35.1691 41.9182 35.1691C43.1814 35.1691 44.1633 35.5852 44.8637 36.4173C45.5642 37.2495 45.9144 38.4408 45.9144 39.9914V40.6829H39.332C39.3559 41.6408 39.6343 42.416 40.1671 43.0087C40.7059 43.5954 41.3884 43.8888 42.2146 43.8888C42.8013 43.8888 43.2982 43.7691 43.7053 43.5296C44.1124 43.2901 44.4686 42.9728 44.7739 42.5777L45.7887 43.3679C44.9745 44.6192 43.7532 45.2448 42.1248 45.2448ZM41.9182 36.5341C41.2477 36.5341 40.685 36.7795 40.23 37.2704C39.775 37.7554 39.4936 38.4379 39.3858 39.3179H44.2531V39.1922C44.2052 38.348 43.9777 37.6955 43.5706 37.2345C43.1635 36.7675 42.6127 36.5341 41.9182 36.5341Z" fill="#8F8F90"/>
<path d="M22.657 15.8042L28.864 9.59714C29.0035 9.43426 29.0764 9.22474 29.0681 9.01045C29.0599 8.79616 28.971 8.59289 28.8194 8.44125C28.6677 8.28961 28.4645 8.20078 28.2502 8.1925C28.0359 8.18422 27.8264 8.25711 27.6635 8.3966L21.4564 14.6037L15.2494 8.38809C15.0865 8.2486 14.8769 8.17571 14.6627 8.18398C14.4484 8.19226 14.2451 8.2811 14.0935 8.43273C13.9418 8.58437 13.853 8.78765 13.8447 9.00194C13.8364 9.21622 13.9093 9.42575 14.0488 9.58863L20.2559 15.8042L14.0403 22.0113C13.9512 22.0876 13.8788 22.1815 13.8277 22.2872C13.7766 22.3928 13.7478 22.5079 13.7433 22.6251C13.7388 22.7424 13.7585 22.8593 13.8013 22.9686C13.8442 23.0778 13.9091 23.1771 13.9921 23.2601C14.075 23.343 14.1743 23.408 14.2835 23.4508C14.3928 23.4936 14.5097 23.5133 14.627 23.5088C14.7442 23.5043 14.8593 23.4756 14.9649 23.4244C15.0706 23.3733 15.1645 23.3009 15.2408 23.2118L21.4564 17.0048L27.6635 23.2118C27.8264 23.3513 28.0359 23.4242 28.2502 23.4159C28.4645 23.4076 28.6677 23.3188 28.8194 23.1672C28.971 23.0155 29.0599 22.8123 29.0681 22.598C29.0764 22.3837 29.0035 22.1742 28.864 22.0113L22.657 15.8042Z" fill="#8F8F90"/>
</svg>
